<?xml version="1.0" encoding="UTF-8" standalone="no"?>
<!DOCTYPE svg PUBLIC "-//W3C//DTD SVG 1.1//EN" "http://www.w3.org/Graphics/SVG/1.1/DTD/svg11.dtd">
<svg width="100%" height="100%" viewBox="0 0 16 16" version="1.1" xmlns="http://www.w3.org/2000/svg" xmlns:xlink="http://www.w3.org/1999/xlink" xml:space="preserve" xmlns:serif="http://www.serif.com/" style="fill-rule:evenodd;clip-rule:evenodd;stroke-linejoin:round;stroke-miterlimit:2;">
    <path d="M8,3C5.258,3.001 3.002,5.258 3.002,8C3.002,10.743 5.259,13 8.002,13C10.745,13 13.002,10.743 13.002,8C13.002,7.28 12.846,6.568 12.546,5.914C12.521,5.854 12.508,5.789 12.508,5.724C12.508,5.45 12.734,5.224 13.008,5.224C13.196,5.224 13.369,5.33 13.454,5.497C13.814,6.282 14.001,7.136 14.001,8C14.001,11.292 11.293,14 8.001,14C4.71,14 2.001,11.292 2.001,8C2.001,4.709 4.709,2.001 8,2L8,3Z"/>
    <g transform="matrix(0.874126,0,0,0.676924,1.00699,0.80769)">
        <path d="M8,4.466L8,0.534C8,0.397 8.113,0.284 8.25,0.284C8.308,0.284 8.365,0.305 8.41,0.342L10.77,2.308C10.89,2.408 10.89,2.592 10.77,2.692L8.41,4.658C8.365,4.695 8.308,4.716 8.25,4.716C8.113,4.716 8,4.603 8,4.466Z" style="fill-rule:nonzero;"/>
    </g>
    <g transform="matrix(0.495207,0,0,0.495207,4.03834,4.03834)">
        <path d="M8,0C8.549,-0 9,0.451 9,1L9,6.268L13.562,3.634C13.715,3.544 13.89,3.497 14.068,3.497C14.616,3.497 15.068,3.948 15.068,4.497C15.068,4.856 14.874,5.188 14.562,5.366L10,8L14.562,10.634C14.874,10.812 15.068,11.144 15.068,11.503C15.068,12.052 14.616,12.503 14.068,12.503C13.89,12.503 13.715,12.456 13.562,12.366L9,9.732L9,15C9,15.549 8.549,16 8,16C7.451,16 7,15.549 7,15L7,9.732L2.438,12.366C2.285,12.456 2.11,12.503 1.932,12.503C1.384,12.503 0.932,12.052 0.932,11.503C0.932,11.144 1.126,10.812 1.438,10.634L6,8L1.438,5.366C1.132,5.187 0.944,4.858 0.944,4.503C0.944,3.955 1.395,3.503 1.944,3.503C2.117,3.503 2.287,3.548 2.438,3.634L7,6.268L7,1C7,0.451 7.451,0 8,0Z" style="fill-rule:nonzero;"/>
    </g>
</svg>
